<svg width="32" height="32" viewBox="0 0 32 32" fill="none" xmlns="http://www.w3.org/2000/svg">
<path fill-rule="evenodd" clip-rule="evenodd" d="M17.6427 1.81334C18.4853 0.802675 20.1267 1.49334 19.9933 2.80268L19.052 12H26.6667C26.92 12.0001 27.1681 12.0724 27.3819 12.2084C27.5956 12.3444 27.7662 12.5384 27.8737 12.7679C27.9811 12.9973 28.021 13.2526 27.9885 13.5039C27.9561 13.7552 27.8528 13.992 27.6907 14.1867L14.3573 30.1867C13.5147 31.1973 11.8733 30.5067 12.0067 29.1973L12.948 20H5.33333C5.07998 19.9999 4.8319 19.9276 4.61814 19.7916C4.40438 19.6557 4.23378 19.4616 4.12634 19.2321C4.01889 19.0027 3.97904 18.7474 4.01145 18.4961C4.04386 18.2448 4.14718 18.008 4.30933 17.8133L17.6427 1.81334ZM8.18 17.3333H15.3107C15.3852 17.3333 15.4589 17.349 15.527 17.3792C15.5952 17.4094 15.6562 17.4536 15.7062 17.5089C15.7562 17.5642 15.7941 17.6293 15.8173 17.7001C15.8406 17.7709 15.8488 17.8458 15.8413 17.92L15.104 25.1267L23.82 14.6667H16.6893C16.6148 14.6667 16.5411 14.6511 16.473 14.6208C16.4048 14.5906 16.3438 14.5464 16.2938 14.4911C16.2438 14.4358 16.2059 14.3707 16.1827 14.2999C16.1594 14.2291 16.1512 14.1542 16.1587 14.08L16.896 6.87468L8.18 17.3333Z" fill="#EC642C"/>
</svg>
